<?xml version="1.0" encoding="UTF-8"?>
<svg id="fish_x5F_hook" xmlns="http://www.w3.org/2000/svg" version="1.1" viewBox="0 0 736.7 4661.2">
  <!-- Generator: Adobe Illustrator 29.5.1, SVG Export Plug-In . SVG Version: 2.1.0 Build 141)  -->
  <defs>
    <style>
      .st0 {
        fill: #fff;
      }
    </style>
  </defs>
  <g id="hook">
    <path class="st0" d="M538.8,3618.5c-14.3,0-27.9-8.3-34.1-22.2-8.4-18.8.1-40.9,18.9-49.2l92.4-41.1c18.8-8.4,40.9.1,49.2,18.9,8.4,18.8-.1,40.9-18.9,49.2l-92.4,41.1c-4.9,2.2-10.1,3.2-15.1,3.2h0Z"/>
    <path class="st0" d="M538.8,3710.5c-14.3,0-27.9-8.3-34.1-22.2-8.4-18.8.1-40.9,18.9-49.2l92.4-41.1c18.8-8.4,40.9.1,49.2,18.9,8.4,18.8-.1,40.9-18.9,49.2l-92.4,41.1c-4.9,2.2-10.1,3.2-15.1,3.2h0Z"/>
    <path class="st0" d="M538.8,3802.5c-14.3,0-27.9-8.3-34.1-22.2-8.4-18.8.1-40.9,18.9-49.2l92.4-41.1c18.8-8.4,40.9.1,49.2,18.9,8.4,18.8-.1,40.9-18.9,49.2l-92.4,41.1c-4.9,2.2-10.1,3.2-15.1,3.2h0Z"/>
    <path class="st0" d="M538.8,3484.5v44.7l92.4-39.3v-5.4c45.4-18.3,77.5-62.8,77.5-114.7s-55.5-123.7-123.7-123.7-123.7,55.5-123.7,123.7,32.1,96.4,77.5,114.7h0ZM585,3326.6c23.8,0,43.2,19.4,43.2,43.2s-19.4,43.2-43.2,43.2-43.2-19.4-43.2-43.2,19.4-43.2,43.2-43.2Z"/>
    <path class="st0" d="M538.8,3905.9s0,1.6,0,1.6v227.4c0,91.7-74.6,166.2-166.2,166.2h-2.5c-91.7,0-166.2-74.6-166.2-166.2v-57.8l107.8,54.1-200.3-275.1v278.9c0,142.6,116,258.7,258.7,258.7h2.5c142.6,0,258.7-116,258.7-258.7v-268.3s-84.9,39.3-92.4,39.3Z"/>
    <path class="st0" d="M538.8,3894.5c-14.3,0-27.9-8.3-34.1-22.2-8.4-18.8.1-40.9,18.9-49.2l92.4-41.1c18.8-8.4,40.9.1,49.2,18.9,8.4,18.8-.1,40.9-18.9,49.2l-92.4,41.1c-4.9,2.2-10.1,3.2-15.1,3.2Z"/>
  </g>
  <rect id="fish_x5F_line" class="st0" x="563" width="40" height="3279.8"/>
</svg>