<svg xmlns="http://www.w3.org/2000/svg" viewBox="0 0 1072.1 161.42"><defs><style>.cls-1{fill:#fff;}</style></defs><title>Asset 2</title><g id="Layer_2" data-name="Layer 2"><g id="Layer_1-2" data-name="Layer 1"><path class="cls-1" d="M665,45.61a35,35,0,1,0,22.42,61.83v7.15H700v-33c0-.33,0-.67,0-1a35,35,0,0,0-35-35m0,56.87A21.88,21.88,0,1,1,686.87,80.6,21.89,21.89,0,0,1,665,102.48"/><rect class="cls-1" x="608.09" y="28.12" width="13.14" height="86.46"/><path class="cls-1" d="M564.32,45.61a35,35,0,1,0,35,35,35,35,0,0,0-35-35m0,56.87A21.88,21.88,0,1,1,586.2,80.6a21.89,21.89,0,0,1-21.88,21.88"/><path class="cls-1" d="M490.69,73v41.65H503.8V73A14.27,14.27,0,0,1,518,58.72h6.23V45.61H518A27.39,27.39,0,0,0,490.69,73"/><path class="cls-1" d="M446.93,45.61a35,35,0,1,0,35,35,35,35,0,0,0-35-35m0,56.87A21.88,21.88,0,1,1,468.81,80.6a21.89,21.89,0,0,1-21.88,21.88"/><path class="cls-1" d="M390,88.24V58.72h16.92V45.61H390V28.12H376.84V88.24a27.39,27.39,0,0,0,27.35,27.35H407v-13.1h-2.79A14.27,14.27,0,0,1,390,88.24"/><path class="cls-1" d="M333.18,45.61a35,35,0,1,0,34.89,35,35,35,0,0,0-34.89-35m0,56.87A21.88,21.88,0,1,1,355.06,80.6a21.89,21.89,0,0,1-21.88,21.88"/><path class="cls-1" d="M262,45.61a27.38,27.38,0,0,0-20.85,9.6A27.31,27.31,0,0,0,193,73v41.6h13.11V73a14.25,14.25,0,0,1,28.49,0v41.6h13.11V73a14.25,14.25,0,0,1,28.49,0v41.6h13.11V73A27.4,27.4,0,0,0,262,45.61"/><path class="cls-1" d="M80.7,0a80.71,80.71,0,1,0,80.72,80.71A80.69,80.69,0,0,0,80.7,0M130,121.5s-3.9-17.67-10.26-28.23c-3.46-5.76-8.8-10.44-15.92-10.31-5,.1-9.37,2.85-14.8,10.44-3.27,4.56-8.3,16.16-8.3,16.16s-2-4.53-4.24-9a56.92,56.92,0,0,0-4.06-7.13C67,85.81,62.59,83.06,57.59,83c-7.12-.13-12.46,4.55-15.92,10.29-6.36,10.58-10.26,28.25-10.26,28.25H25.59l31-101.65L80.51,99.24l.18.13.16-.13,23.93-79.39,31,101.65Z"/><path class="cls-1" d="M1015.35,106.78H996.08a77.18,77.18,0,0,1-8.74-.21,33.11,33.11,0,0,1-3.71-.81l.87-1.18L993.13,93l10.43-14,9-12.1c1.46-2,3-3.87,4.38-5.88l.06-.08c.13-.31.26-.61.38-.91a2.87,2.87,0,0,0,.1-1.36,3.06,3.06,0,0,0-.07-.79,3.78,3.78,0,0,0-1-2.18,35.4,35.4,0,0,0-23.32-10.84,35,35,0,0,0-29.35,13.1,39,39,0,0,0-3.29,4.85A37.75,37.75,0,0,0,958,68.17a34.7,34.7,0,0,0-.08,23,35.73,35.73,0,0,0,14.79,18.44c.77.47,1.56.92,2.37,1.33l.21.1a1.19,1.19,0,0,0,.16.08A35.4,35.4,0,0,0,992,114.77a3,3,0,0,0,.42,0h22.91a3.86,3.86,0,0,0,3.81-3.81v-.4a3.87,3.87,0,0,0-3.81-3.81m-39.14-4.45c-.6-.38-1.19-.8-1.76-1.23a27.18,27.18,0,0,1-8.35-10.86,31.07,31.07,0,0,1-1.87-6.84,29.81,29.81,0,0,1,0-7.23,31.16,31.16,0,0,1,1.87-6.85,27.25,27.25,0,0,1,8.42-10.92,26.95,26.95,0,0,1,27-3.53,31.6,31.6,0,0,1,6,3.49c.32.25.63.51.94.78l-1.85,2.47-8.66,11.64q-5.24,7-10.46,14.06l-9,12.09c-.72,1-1.47,2-2.2,2.93"/><path class="cls-1" d="M943.29,59.22a37.13,37.13,0,0,0-3.79-4.42,38,38,0,0,0-4.45-3.66,34.52,34.52,0,0,0-9.69-4.75,35,35,0,0,0-44.74,27.19,38.73,38.73,0,0,0-.57,5.47,36.85,36.85,0,0,0,.44,6.21,33.82,33.82,0,0,0,3.68,11,34.89,34.89,0,0,0,15.7,15.07,35.88,35.88,0,0,0,5.58,2.14,36.93,36.93,0,0,0,6.36,1.18,34.25,34.25,0,0,0,11.63-.85,34.8,34.8,0,0,0,17.91-10.91c.24-.27.45-.55.67-.82,0,3.51,0,7,0,10.51a63.79,63.79,0,0,1-.18,7.32,26.81,26.81,0,0,1-5.38,12.83,31.54,31.54,0,0,1-4.9,4.9,31.07,31.07,0,0,1-6,3.52,30.62,30.62,0,0,1-6.85,1.87,27,27,0,0,1-14.08-1.87,30.89,30.89,0,0,1-6-3.5,32.18,32.18,0,0,1-3.23-2.95,3.85,3.85,0,0,0-6,.76l-.21.36a3.87,3.87,0,0,0,.59,4.61,35.16,35.16,0,0,0,36.42,9,34.76,34.76,0,0,0,17.23-12.73,33.85,33.85,0,0,0,6-13.71,2.19,2.19,0,0,0,.14-.5,39.8,39.8,0,0,0,.54-5.55V86c0-1.64,0-3.29,0-4.94V81a3.44,3.44,0,0,0,0-.46,34.54,34.54,0,0,0-6.76-21.35m-1.45,24.24A30.21,30.21,0,0,1,940,90.19a31,31,0,0,1-3.17,5.61c-.13.2-.28.38-.42.58a32.1,32.1,0,0,1-4.88,4.87,31.17,31.17,0,0,1-6,3.51,27,27,0,0,1-20.95,0,31.17,31.17,0,0,1-6-3.51,32,32,0,0,1-4.9-4.9,31.8,31.8,0,0,1-3.53-6,31.46,31.46,0,0,1-1.87-6.85,31.7,31.7,0,0,1,0-7.22,31.31,31.31,0,0,1,1.87-6.85,27.25,27.25,0,0,1,8.42-10.92,26.91,26.91,0,0,1,20.1-5.4A31,31,0,0,1,925.54,55a27.18,27.18,0,0,1,10.9,8.41,31.37,31.37,0,0,1,3.52,6,30.79,30.79,0,0,1,1.88,6.85,31.13,31.13,0,0,1,0,7.22"/><path class="cls-1" d="M869.58,20.87h-.41a3.86,3.86,0,0,0-3.8,3.8V57.61c-.59-.72-1.21-1.41-1.85-2.08A34.88,34.88,0,0,0,834.78,45a38,38,0,0,0-5.6,1A37.62,37.62,0,0,0,824,48a35,35,0,0,0-20.59,32.82,34.72,34.72,0,0,0,6.49,19.34,37,37,0,0,0,3.5,4.21,38.13,38.13,0,0,0,4.13,3.58A35,35,0,0,0,870,94.84a37,37,0,0,0,2-5.19,36.36,36.36,0,0,0,1.11-5.57,31.27,31.27,0,0,0,.27-4.54,2.82,2.82,0,0,0,0-.41V31.36c0-2.2,0-4.4,0-6.59v-.1a3.84,3.84,0,0,0-3.8-3.8m-4.44,62.6a30.76,30.76,0,0,1-1.87,6.85,30.57,30.57,0,0,1-3.52,6,31,31,0,0,1-4.9,4.89,26.74,26.74,0,0,1-12.88,5.4,33.47,33.47,0,0,1-3.61.22,33.81,33.81,0,0,1-3.62-.22,26.85,26.85,0,0,1-12.88-5.4A31.41,31.41,0,0,1,817,96.35a27.11,27.11,0,0,1-5.4-12.88,32.37,32.37,0,0,1,0-7.23,30.64,30.64,0,0,1,1.88-6.85,30.57,30.57,0,0,1,3.52-6,31.41,31.41,0,0,1,4.89-4.89,26.85,26.85,0,0,1,12.88-5.4,26.84,26.84,0,0,1,20.11,5.4,31,31,0,0,1,4.9,4.89,30.57,30.57,0,0,1,3.52,6,30.62,30.62,0,0,1,1.87,6.85,31.22,31.22,0,0,1,0,7.23"/><path class="cls-1" d="M793.26,106.78H774a77.18,77.18,0,0,1-8.74-.21,33.28,33.28,0,0,1-3.72-.81l.88-1.18L771,93l10.42-14q4.5-6,9-12.1c1.45-2,3-3.87,4.38-5.88l.06-.08.38-.91a3,3,0,0,0,.1-1.35,3.1,3.1,0,0,0-.07-.8,3.78,3.78,0,0,0-1-2.18A35.4,35.4,0,0,0,771,44.83a34.86,34.86,0,0,0-29.34,13.11,36.16,36.16,0,0,0-3.29,4.84,37.75,37.75,0,0,0-2.42,5.39,34.63,34.63,0,0,0-.08,23,35.76,35.76,0,0,0,14.78,18.44c.77.47,1.57.92,2.38,1.33l.21.1.15.08a35.47,35.47,0,0,0,16.59,3.65,2.83,2.83,0,0,0,.41,0h22.92a3.85,3.85,0,0,0,3.8-3.81v-.4a3.86,3.86,0,0,0-3.8-3.81m-39.15-4.45c-.6-.38-1.18-.8-1.76-1.23a31.9,31.9,0,0,1-4.82-4.83,31.07,31.07,0,0,1-3.52-6,30.53,30.53,0,0,1-1.87-6.84,29.81,29.81,0,0,1,0-7.23A30.62,30.62,0,0,1,744,69.32a27,27,0,0,1,8.42-10.92,26.87,26.87,0,0,1,32.92,0c.32.25.63.51.94.78l-1.84,2.47-8.66,11.64L765.32,87.31l-9,12.09c-.73,1-1.47,2-2.21,2.93"/><path class="cls-1" d="M1068,26.49h-20.8V5.69a4.19,4.19,0,0,0-3.93-4.14,4.25,4.25,0,0,0-4.34,4.14v20.8h-20.8a4.34,4.34,0,0,0-3,1.36,3.73,3.73,0,0,0-1.1,2.72,4.21,4.21,0,0,0,4.14,4.19h20.8v20.8a4.2,4.2,0,0,0,3.94,4.14h.15a4.21,4.21,0,0,0,4.18-4.14V34.76H1068a4.32,4.32,0,0,0,3-1.36,3.73,3.73,0,0,0,1.1-2.72,4.21,4.21,0,0,0-4.14-4.19"/></g></g></svg>