<svg xmlns="http://www.w3.org/2000/svg" viewBox="0 0 161.42 161.42"><defs><style>.cls-1{fill:#fff;}</style></defs><title>Asset 4</title><g id="Layer_2" data-name="Layer 2"><g id="Layer_1-2" data-name="Layer 1"><path class="cls-1" d="M80.7,0a80.71,80.71,0,1,0,80.72,80.71A80.69,80.69,0,0,0,80.7,0M130,121.5s-3.9-17.67-10.26-28.23c-3.46-5.76-8.8-10.44-15.92-10.31-5,.1-9.37,2.85-14.8,10.44-3.27,4.56-8.3,16.16-8.3,16.16s-2-4.53-4.24-9a56.92,56.92,0,0,0-4.06-7.13C67,85.81,62.59,83.06,57.59,83c-7.12-.13-12.46,4.55-15.92,10.29-6.36,10.58-10.26,28.25-10.26,28.25H25.59l31-101.65L80.51,99.24l.18.13.16-.13,23.93-79.39,31,101.65Z"/></g></g></svg>