<svg xmlns="http://www.w3.org/2000/svg" xmlns:xlink="http://www.w3.org/1999/xlink" viewBox="0 0 896.8 141.99"><defs><style>.cls-1{fill:none;}.cls-2{clip-path:url(#clip-path);}.cls-3{fill:#fff;}</style><clipPath id="clip-path" transform="translate(-41.04 -39.51)"><rect class="cls-1" width="976.6" height="220.13"/></clipPath></defs><title>Asset 1</title><g id="Layer_2" data-name="Layer 2"><g id="Layer_1-2" data-name="Layer 1"><g class="cls-2"><path class="cls-3" d="M806.28,58.09h-.35a3.4,3.4,0,0,0-3.35,3.35v29c-.52-.64-1.06-1.25-1.63-1.84a30.64,30.64,0,0,0-25.27-9.22,29.76,29.76,0,0,0-9.53,2.57,30.74,30.74,0,0,0-12.4,45.89,35,35,0,0,0,3.08,3.69,33.05,33.05,0,0,0,3.63,3.15,30.68,30.68,0,0,0,41.26-4.11,30.43,30.43,0,0,0,4.92-7.39,28.8,28.8,0,0,0,2.73-9.46,26.77,26.77,0,0,0,.24-4c0-.12,0-.24,0-.36v-42c0-1.94,0-3.87,0-5.8v-.08A3.39,3.39,0,0,0,806.28,58.09Zm-3.9,55.06a27.24,27.24,0,0,1-1.64,6,28.46,28.46,0,0,1-3.1,5.31,27.82,27.82,0,0,1-4.31,4.3,27,27,0,0,1-5.3,3.1,27.34,27.34,0,0,1-6,1.65,26.62,26.62,0,0,1-6.35,0,27.34,27.34,0,0,1-6-1.65,27,27,0,0,1-5.3-3.1,23.77,23.77,0,0,1-7.41-9.61,23.76,23.76,0,0,1-1.64-12.38,27.09,27.09,0,0,1,1.64-6,23.77,23.77,0,0,1,7.41-9.61,27,27,0,0,1,5.3-3.1,27.34,27.34,0,0,1,6-1.65,28.09,28.09,0,0,1,6.35,0,27.34,27.34,0,0,1,6,1.65,27,27,0,0,1,5.3,3.1,27.82,27.82,0,0,1,4.31,4.3,28.46,28.46,0,0,1,3.1,5.31,23.76,23.76,0,0,1,1.64,12.38Z" transform="translate(-41.04 -39.51)"/><path class="cls-3" d="M739.16,133.65H722.21a68,68,0,0,1-7.69-.18,27.87,27.87,0,0,1-3.26-.72l.77-1,7.59-10.19,9.16-12.32,7.92-10.64c1.29-1.72,2.64-3.41,3.86-5.17a.35.35,0,0,1,.05-.08l.34-.8a2.53,2.53,0,0,0,.08-1.19,2.31,2.31,0,0,0-.06-.69,3.3,3.3,0,0,0-.92-1.92,31.09,31.09,0,0,0-20.51-9.53,30.62,30.62,0,0,0-18.86,5.12,31.09,31.09,0,0,0-6.95,6.4,29.8,29.8,0,0,0-5,9,30.58,30.58,0,0,0-.07,20.23,31.37,31.37,0,0,0,13,16.22c.68.42,1.38.81,2.09,1.17l.19.08.13.08a31.14,31.14,0,0,0,14.59,3.21l.37,0h20.15a3.39,3.39,0,0,0,3.35-3.34V137A3.4,3.4,0,0,0,739.16,133.65Zm-34.43-3.91c-.53-.34-1-.7-1.55-1.08a23.88,23.88,0,0,1-7.34-9.55,28,28,0,0,1-1.64-6,26.71,26.71,0,0,1,0-6.36,27.32,27.32,0,0,1,1.64-6,28.38,28.38,0,0,1,3.1-5.3A24.19,24.19,0,0,1,708.55,88a28,28,0,0,1,6-1.64,28.27,28.27,0,0,1,6.37,0A27.41,27.41,0,0,1,727,88a27.89,27.89,0,0,1,5.25,3.06c.28.22.55.45.82.69l-1.62,2.18-7.61,10.23-9.21,12.37-7.92,10.63C706,128,705.38,128.88,704.73,129.74Z" transform="translate(-41.04 -39.51)"/><path class="cls-3" d="M934.49,133.65h-17a68.08,68.08,0,0,1-7.69-.18,27.87,27.87,0,0,1-3.26-.72c.26-.34.51-.69.77-1L915,121.51l9.17-12.32L932,98.55c1.28-1.72,2.63-3.41,3.85-5.17l.05-.08c.12-.26.23-.53.34-.8a2.53,2.53,0,0,0,.08-1.19,2.3,2.3,0,0,0-.05-.69,3.36,3.36,0,0,0-.92-1.92,31.12,31.12,0,0,0-20.52-9.53,30.65,30.65,0,0,0-25.8,11.52,32.3,32.3,0,0,0-2.9,4.26A33.51,33.51,0,0,0,884,99.69a30.58,30.58,0,0,0-.07,20.23,31.44,31.44,0,0,0,13,16.22c.68.42,1.37.81,2.08,1.17l.19.08.13.08A31.14,31.14,0,0,0,914,140.68l.37,0h20.15a3.39,3.39,0,0,0,3.35-3.34V137A3.4,3.4,0,0,0,934.49,133.65Zm-34.43-3.91c-.52-.34-1-.7-1.54-1.08a23.64,23.64,0,0,1-7.34-9.55,27.41,27.41,0,0,1-1.65-6,26.71,26.71,0,0,1,0-6.36,23.7,23.7,0,0,1,4.75-11.33,23.78,23.78,0,0,1,15.63-9.05,28.18,28.18,0,0,1,6.36,0,23.74,23.74,0,0,1,11.27,4.71c.28.22.55.45.83.69-.55.72-1.09,1.45-1.63,2.18l-7.61,10.23-9.21,12.37L902,127.16C901.36,128,900.71,128.88,900.06,129.74Z" transform="translate(-41.04 -39.51)"/><path class="cls-3" d="M871.12,91.82a32.53,32.53,0,0,0-3.34-3.88,33.63,33.63,0,0,0-3.92-3.23,30.2,30.2,0,0,0-8.51-4.17A30.84,30.84,0,0,0,816,104.45a35.33,35.33,0,0,0-.5,4.81,33.2,33.2,0,0,0,.39,5.46,29.92,29.92,0,0,0,3.23,9.73,30.79,30.79,0,0,0,13.81,13.25,30.13,30.13,0,0,0,10.51,2.92,30.62,30.62,0,0,0,26-10.35l.59-.71q0,4.62,0,9.24a57.7,57.7,0,0,1-.16,6.44,23.66,23.66,0,0,1-4.74,11.28,27.82,27.82,0,0,1-4.3,4.31,28.7,28.7,0,0,1-5.3,3.1,23.81,23.81,0,0,1-12.39,1.64,27.11,27.11,0,0,1-6-1.65,26.59,26.59,0,0,1-5.26-3.07,28.07,28.07,0,0,1-2.85-2.6,3.37,3.37,0,0,0-5.25.67l-.19.32a3.4,3.4,0,0,0,.52,4,30.77,30.77,0,0,0,37.81,5.28,31.79,31.79,0,0,0,9.37-8.56A29.57,29.57,0,0,0,876.48,148a1.76,1.76,0,0,0,.13-.43,34.89,34.89,0,0,0,.47-4.89V115.41c0-1.45,0-2.9,0-4.34V111c0-.13,0-.27,0-.4A30.43,30.43,0,0,0,871.12,91.82Zm-1.28,21.32a27,27,0,0,1-1.61,5.92,27.62,27.62,0,0,1-2.79,4.94l-.37.5a28,28,0,0,1-4.29,4.28,27,27,0,0,1-5.29,3.1,27.41,27.41,0,0,1-6,1.65,27.92,27.92,0,0,1-6.33,0,23.8,23.8,0,0,1-11.36-4.74,28,28,0,0,1-4.31-4.32,23.81,23.81,0,0,1-4.75-11.33,28.09,28.09,0,0,1,0-6.35,27.11,27.11,0,0,1,1.65-6,23.86,23.86,0,0,1,7.4-9.61,23.81,23.81,0,0,1,11.33-4.75,28.09,28.09,0,0,1,6.35,0,27.51,27.51,0,0,1,6,1.65,23.83,23.83,0,0,1,9.59,7.41,28.06,28.06,0,0,1,3.1,5.3,27.11,27.11,0,0,1,1.65,6A28.09,28.09,0,0,1,869.84,113.14Z" transform="translate(-41.04 -39.51)"/><path class="cls-3" d="M626,79.63A30.78,30.78,0,1,0,645.69,134v6.29h11v-29c0-.3,0-.59,0-.89A30.8,30.8,0,0,0,626,79.63Zm0,50a19.25,19.25,0,1,1,19.25-19.25A19.26,19.26,0,0,1,626,129.66Z" transform="translate(-41.04 -39.51)"/><rect class="cls-3" x="534.87" y="24.74" width="11.55" height="76.05"/><path class="cls-3" d="M537.42,79.63a30.78,30.78,0,1,0,30.78,30.78A30.8,30.8,0,0,0,537.42,79.63Zm0,50a19.25,19.25,0,1,1,19.24-19.25A19.26,19.26,0,0,1,537.42,129.66Z" transform="translate(-41.04 -39.51)"/><path class="cls-3" d="M472.65,103.69v36.63h11.53V103.69a12.56,12.56,0,0,1,12.53-12.53h5.48V79.63h-5.48A24.1,24.1,0,0,0,472.65,103.69Z" transform="translate(-41.04 -39.51)"/><path class="cls-3" d="M434.16,79.63a30.78,30.78,0,1,0,30.78,30.78A30.8,30.8,0,0,0,434.16,79.63Zm0,50a19.25,19.25,0,1,1,19.24-19.25A19.26,19.26,0,0,1,434.16,129.66Z" transform="translate(-41.04 -39.51)"/><path class="cls-3" d="M384,117.13v-26h14.89V79.63H384V64.25H372.51v52.88a24.1,24.1,0,0,0,24.06,24.06H399V129.66h-2.45A12.56,12.56,0,0,1,384,117.13Z" transform="translate(-41.04 -39.51)"/><path class="cls-3" d="M334.1,79.63a30.78,30.78,0,1,0,30.69,30.78A30.82,30.82,0,0,0,334.1,79.63Zm0,50a19.25,19.25,0,1,1,19.25-19.25A19.26,19.26,0,0,1,334.1,129.66Z" transform="translate(-41.04 -39.51)"/><path class="cls-3" d="M271.45,79.63a24.09,24.09,0,0,0-18.34,8.44,24,24,0,0,0-42.31,15.62v36.59h11.53V103.69a12.53,12.53,0,1,1,25.06,0v36.59h11.53V103.69a12.53,12.53,0,0,1,25.06,0v36.59h11.53V103.69A24.1,24.1,0,0,0,271.45,79.63Z" transform="translate(-41.04 -39.51)"/><path class="cls-3" d="M112,39.51a71,71,0,1,0,71,71A71,71,0,0,0,112,39.51Zm43.34,106.87s-3.43-15.54-9-24.83c-3-5.07-7.74-9.19-14-9.07-4.43.09-8.24,2.51-13,9.19-2.88,4-7.3,14.21-7.3,14.21s-1.72-4-3.73-7.94a50.56,50.56,0,0,0-3.57-6.27c-4.76-6.68-8.62-9.1-13-9.19-6.26-.12-11,4-14,9-5.6,9.31-9,24.85-9,24.85H63.55L90.8,57l21,69.83.16.12.14-.12L133.2,57l27.28,89.41Z" transform="translate(-41.04 -39.51)"/></g></g></g></svg>