<?xml version="1.0" encoding="UTF-8"?><svg id="Layer_2" xmlns="http://www.w3.org/2000/svg" width="551.16" height="130.76" viewBox="0 0 551.16 130.76"><defs><style>.cls-1{fill:#fff;}</style></defs><g id="logo_barra"><path class="cls-1" d="M161.16,8.51c6.1-3,12.12-6.19,18.52-8.51-6.09,7.54-13.05,14.34-18.95,22.04-9.77,11.81-18.87,24.22-26.49,37.54-6.33,11.28-11.8,23.46-13.11,36.46-.93,9.4,1.19,19.6,8.04,26.48,3.34,3.86,8.01,6.08,12.56,8.17-31.07,0-62.14-.03-93.22,0,4.81-22.74,17.09-43.25,31.96-60.86,22.35-25.7,50.54-45.78,80.69-61.33M7.43,64.67c1.98-7.74,3.73-15.62,7.01-22.94.14,8.09-.54,16.21.27,24.28,1.4,22.72,7.61,45.43,20.08,64.63-11.6.11-23.2,0-34.79.05.08-22.18,2.37-44.4,7.43-66.02"/><path class="cls-1" d="M180.29,65.63c9.13-.17,18.26.04,27.38-.08,5.83-.06,12.15.78,16.73,4.71,7.02,6.28,5.72,19.34-2.5,24.01-1.11.68-2.26,1.27-3.39,1.88,3.9,1.32,8.08,2.99,10.32,6.69,4.11,6.74,3.3,16.33-2.22,22.06-4.49,4.19-10.88,5.61-16.86,5.77-9.75.09-19.5-.1-29.25.08-.26-2.24-.37-4.49-.33-6.74.15-19.46-.12-38.93.12-58.38M186.52,70.91c-.12,7.71-.15,15.41-.03,23.12,7.08.01,14.16.06,21.24-.02,4.44-.11,9.49-.78,12.47-4.45,3.13-3.52,2.9-8.91.94-12.93-2.28-4.01-7.05-5.55-11.41-5.68-7.73-.25-15.47-.12-23.21-.04M186.7,99.39c-.57,8.58-.16,17.19-.21,25.79,8.41.12,16.84.32,25.24-.08,4.6-.15,9.33-2.26,11.77-6.28,2.4-4.66,2.34-11.1-1.56-14.96-3.38-3.51-8.54-4.38-13.21-4.45-7.34-.03-14.68.11-22.03-.02M502.43,65.68c1.85-.02,3.71-.02,5.58-.01.11,21.13.22,42.27-.06,63.39-1.68-.05-3.34-.09-5.01-.13-.05-2.65-.1-5.29-.19-7.94-6.28,11.08-23.68,12.49-31.63,2.58-5.37-6.47-6.03-15.51-5.01-23.53,1.05-5.95,4.03-12,9.34-15.23,6.13-3.92,14.49-3.95,20.76-.31,2.66,1.54,4.34,4.2,6.21,6.55-.05-8.45-.12-16.91.01-25.37M482,87.29c-5,1.62-8.42,6.33-9.64,11.29-1.95,7.39-1.23,15.97,3.59,22.13,4.63,5.71,13.62,6.22,19.42,2.05,4.31-2.84,6.19-8.06,6.81-12.96.61-5.78.03-12.07-3.39-16.95-3.54-5.32-10.79-7.48-16.79-5.56M383.53,87.87c7.14-7.48,19.96-7.99,28.02-1.75,3.49,2.69,4.83,7.11,5.82,11.21-1.96.25-3.93.31-5.9.2-1.14-3.75-2.87-7.86-6.66-9.6-5.56-2.54-12.84-1.41-16.92,3.29-6.93,7.46-7.05,19.79-1.47,28.06,4.21,6.25,14.02,8.52,19.97,3.45,3.3-2.49,4.74-6.5,5.75-10.35,1.81,0,3.62,0,5.44,0-.67,4.45-2.11,8.94-5.3,12.25-5.65,6.31-15.54,6.99-22.98,3.74-6.7-2.91-10.95-9.7-12.09-16.74-1.25-8.27.09-17.68,6.32-23.76M245.77,83.12c6.06-.19,12.24-.52,18.22.73,5.44,1.33,9.47,6.53,9.51,12.11.14,11.13-.05,22.27.08,33.41-1.62.05-3.23.13-4.84.06-1.2-1.94-.51-4.48-.87-6.67-3.08,3.16-6.36,6.55-10.88,7.41-5.59,1.01-12.06.96-16.71-2.75-4.22-3.51-5.16-9.65-3.73-14.72,1.28-3.72,4.79-6.18,8.37-7.43,6.53-2.41,13.7-1.7,20.31-3.64,4.69-2.69,2.79-10.5-1.75-12.46-5.59-2.28-11.79-1.16-17.66-1.42-.03-1.55-.04-3.09-.05-4.63M244.68,111.05c-4.83,3.22-3.34,11.07,1.6,13.44,7.18,3.65,17.39.29,20.53-7.3,1.6-3.78,1.06-7.98,1.08-11.98-7.49,2.91-16.28,1.41-23.21,5.84M296.02,85.36c2.98-1.84,6.52-2.21,9.93-2.5.07,1.46.14,2.92.22,4.38-3.96,1.12-8.1,2.23-11.32,4.94-3.75,3.1-5.76,7.99-5.78,12.82-.11,8.13.13,16.27-.1,24.4-1.84,0-3.66-.02-5.49-.04-.13-15.23-.16-30.47,0-45.7,1.71,0,3.42.02,5.14.05.07,3.15.13,6.3.2,9.46,2.06-2.88,4-6.06,7.2-7.81M326.65,84.96c2.82-1.63,6.14-1.75,9.3-2.02.06,2.01.79,5.16-2.24,5.11-7.48,1.13-14.05,7.29-14.62,15.01-.28,8.76.07,17.55-.14,26.32-1.86.02-3.71.02-5.56.02-.15-15.23-.14-30.46-.01-45.68,1.72,0,3.44.02,5.17.05-.04,3.13-.04,6.27.11,9.4,2.25-3.08,4.46-6.46,7.99-8.21M342.84,83.29c5.55.02,11.13-.47,16.66.18,6.05.88,11.09,6.28,11.02,12.5.08,11.12-.05,22.25.11,33.38-1.78.03-3.55.05-5.31.06-.05-2.5-.05-5-.11-7.5-2.58,3-5.13,6.39-9.09,7.6-5.68,1.96-12.36,1.69-17.65-1.3-5.56-3.36-6.51-11.12-4.31-16.77,1.72-3.69,5.76-5.55,9.46-6.68,5.86-1.68,12.05-1.44,17.95-2.82,2.65-.51,3.61-3.54,3.37-5.91-.03-4-3.53-7.36-7.4-7.82-4.86-.78-9.8-.37-14.7-.49v-4.43ZM342.97,110.28c-4.67,1.99-5.69,9.05-1.97,12.39,5.35,5.48,14.89,3.56,20.03-1.27,4.52-4.1,4.12-10.6,3.89-16.16-7.12,2.53-15.11,1.63-21.95,5.04M422.49,83.16c1.79,0,3.59,0,5.39-.01.51,10.59-.06,21.21.27,31.8.26,4.09,2.41,8.76,6.71,9.85,4.66,1.32,10.4,1.04,13.95-2.65,3.96-3.92,5.13-9.76,5.2-15.14.02-7.92-.01-15.84-.04-23.77,1.86-.03,3.72-.06,5.6-.08.3,15.27.28,30.56.08,45.83h-5.11c-.06-2.42-.08-4.85-.12-7.27-2.89,3.19-5.94,6.63-10.3,7.68-6.23,1.77-14.23,1.11-18.48-4.34-3.39-4.21-3.27-9.93-3.32-15.05.17-8.95-.2-17.91.17-26.85M523.36,82.63c7.56.25,16.06-1.45,22.75,2.96,5.01,3.38,5.15,10,5.03,15.43-.08,9.37.11,18.74-.22,28.1-1.71-.06-3.4-.11-5.08-.17-.11-2.35-.21-4.71-.34-7.06-2.69,2.97-5.44,6.25-9.47,7.38-5.34,1.5-11.42,1.5-16.4-1.16-7.86-4.08-8.51-17.39-.59-21.74,7.03-3.99,15.42-3.09,23.04-4.99,2.81-.51,3.59-3.82,3.28-6.26-.25-3.83-3.61-6.86-7.29-7.41-4.85-.77-9.78-.23-14.66-.46-.02-1.54-.04-3.08-.05-4.62M521.69,110.99c-4.45,3.63-2.37,11.26,2.62,13.35,6.78,2.87,15.68.12,19.39-6.33,2.32-4.18,1.6-9.12,1.68-13.7-7.47,3.71-16.81,1.56-23.69,6.68"/></g></svg>