<?xml version="1.0" encoding="UTF-8"?><svg id="Layer_2" xmlns="http://www.w3.org/2000/svg" width="174" height="52.6" viewBox="0 0 174 52.6"><defs><style>.cls-1{fill:#fff;}</style></defs><g id="logo"><g id="ALL"><g id="Bottom_Layer"><g id="Footer"><g id="BlueAlly_Logo"><g id="Components"><g id="a3862a0e-d6de-4853-acd3-abb61620a333_1"><rect class="cls-1" x="28.24" y="20.15" width="4.39" height="26.09"/><path class="cls-1" d="M52.48,38.04c0,2.68-2.8,4.86-6.23,4.86-1.31,0-2.36-.32-3.13-.95-.91-.74-1.17-1.41-1.17-3.15v-12.03h-4.39v12.3c0,2.88.52,4.4,1.91,5.63,1.47,1.31,3.62,2.03,6.06,2.03,2.88,0,4.72-.69,6.96-2.7v2.21h4.39v-19.46h-4.39v11.27h-.01Z"/><path class="cls-1" d="M71.71,26.27c-6.39,0-10.86,4.25-10.86,10.32s4.33,10.13,10.78,10.13c5.15,0,8.59-2.15,10.52-6.57l.21-.49h-4.77l-.09.22c-.89,2.13-2.75,3.21-5.54,3.21-3.71,0-6.28-1.97-6.79-5.16h17.35v-.35c0-2.32-.26-3.81-.94-5.5-1.5-3.64-5.19-5.81-9.88-5.81h.01ZM65.36,34.34c.93-2.89,3.15-4.47,6.31-4.47s5.38,1.62,6.27,4.47c0,0-12.58,0-12.58,0Z"/><rect class="cls-1" x="115.13" y="20.15" width="4.39" height="26.09"/><rect class="cls-1" x="124.45" y="20.15" width="4.39" height="26.09"/><path class="cls-1" d="M148.7,26.77l-6.05,14.66-6.19-14.66h-5.12l9.01,19.41c-.6,1.84-1.57,2.59-3.32,2.59-.74,0-1.25-.04-2.49-.26l-.41-.07v3.79l.28.06c1.13.22,1.76.31,2.69.31,3.71,0,5.37-1.2,7.09-5.11l9.44-20.71h-4.93,0Z"/><path class="cls-1" d="M20.21,32.29c1.88-1.23,2.76-2.89,2.76-5.17,0-2.73-1.27-5.03-3.32-5.99-1.65-.77-3.14-.98-6.65-.98H0v26.09h13.18c3.65,0,5.11-.21,6.76-.98,2.49-1.07,4.1-3.75,4.1-6.83,0-2.82-1.28-4.88-3.82-6.13h-.01ZM4.62,34.7h9.89c1.85,0,2.79.21,3.59.8.84.63,1.31,1.68,1.31,2.96s-.46,2.32-1.31,2.95c-.81.6-1.75.81-3.6.81H4.62v-7.52h0ZM4.62,24.16h9.32c3.18,0,4.6,1.01,4.6,3.26s-1.42,3.26-4.6,3.26H4.62v-6.53h0Z"/><path class="cls-1" d="M100.86,20.15h-4.86l-8.33,17.79h16.33l3.76,8.3h5.23l-12.13-26.09h0ZM98.58,25.73l3.79,8.61h-7.69l3.9-8.61Z"/><path class="cls-1" d="M92.26,39.67l-2.98,6.56h-5.37l.76-1.68c1.35-2.98,4.32-4.89,7.58-4.89h.01Z"/><g id="_Radial_Repeat_"><path class="cls-1" d="M174,10.12l-5.34,9.99-8.42-.55,1.36-2.55c2.42-4.53,7.27-7.22,12.4-6.88h0Z"/></g><g id="_Radial_Repeat_-2"><path class="cls-1" d="M156.29,21.29l-5.98-9.62,4.69-7.01,1.53,2.46c2.71,4.36,2.62,9.91-.24,14.18h0Z"/></g><g id="_Radial_Repeat_-3"><path class="cls-1" d="M155.47.37l11.32-.37,3.73,7.57-2.89.09c-5.13.17-9.89-2.69-12.16-7.29h0Z"/></g></g></g></g></g></g></g></g></svg>