<?xml version="1.0" encoding="UTF-8"?><svg id="Layer_2" xmlns="http://www.w3.org/2000/svg" width="100" height="100" viewBox="0 0 100 100"><defs><style>.cls-1{fill:#fff;}</style></defs><g id="icon_bug"><path class="cls-1" d="M46.83,21.35l10.29-10.29,1.98-8.52c.26-1.11-.43-2.23-1.56-2.49-1.11-.27-2.23.43-2.49,1.55l-1.72,7.36-11.43,11.43-1.37,9.64c-.62.59-1.22,1.18-1.87,1.81l-7.88-7.23-9.83,6.92-7.77.86c-1.14.13-1.96,1.15-1.84,2.3.05.49.27.92.6,1.24.43.43,1.04.67,1.7.6l8.3-.92,8.24-5.49,4.49,5.77c-1.25,1.31-2.51,2.66-3.76,4.07l-11.13,1.04-11.25,11.62-6.76.92c-1.14.16-1.94,1.2-1.78,2.34.06.47.28.88.59,1.19.44.44,1.08.68,1.75.59l8.19-1.11,9.43-9.81,4.78.81c-7.56,10.31-12.52,22.02-6.68,32.27l41.54-41.53-13.55-13.55.76-3.38Z"/><path class="cls-1" d="M67.6,86.8l.86-7.78,6.93-9.82-7.24-7.88c.64-.64,1.22-1.26,1.82-1.87l9.64-1.37,11.42-11.43,7.36-1.71c1.11-.26,1.81-1.38,1.54-2.49-.25-1.12-1.38-1.81-2.49-1.55l-8.51,1.98-10.29,10.29-3.38.76-13.55-13.55-40.79,40.79c10.12,5.77,21.47,1.21,31.5-6.01l.82,4.86-9.8,9.43-1.12,8.19c-.09.67.15,1.31.6,1.75.31.31.72.53,1.19.59,1.13.16,2.18-.64,2.34-1.78l.92-6.76,11.62-11.25,1.04-11.15c1.41-1.25,2.77-2.49,4.06-3.73l5.78,4.49-5.5,8.24-.92,8.3c-.07.65.17,1.27.6,1.7.32.32.75.54,1.24.6,1.14.13,2.17-.7,2.3-1.83Z"/><path class="cls-1" d="M48.42,22.71l13.57,13.57,7.22-19.58c-6.76-1.37-14.51.71-20.79,6.01Z"/><path class="cls-1" d="M78.51,21.49c-1.84-1.85-4.05-3.15-6.41-4.02l-6.11,16.56,16.55-6.11c-.88-2.37-2.17-4.58-4.02-6.42Z"/><path class="cls-1" d="M83.31,30.79l-19.58,7.23,13.57,13.57c5.3-6.29,7.38-14.03,6.01-20.79Z"/></g></svg>