<?xml version="1.0" encoding="UTF-8"?>
<svg id="Layer_2" xmlns="http://www.w3.org/2000/svg" version="1.1" viewBox="0 0 371.2 215.8">
  <!-- Generator: Adobe Illustrator 29.5.1, SVG Export Plug-In . SVG Version: 2.1.0 Build 141)  -->
  <defs>
    <style>
      .st0 {
        fill: #fff;
      }
    </style>
  </defs>
  <g id="logo_x5F_barracuda_x5F_vert">
    <path id="logo_x5F_barracuda_x5F_fin" class="st0" d="M161.2,8.5c6.1-3,12.1-6.2,18.5-8.5-6.1,7.5-13.1,14.3-18.9,22-9.8,11.8-18.9,24.2-26.5,37.5-6.3,11.3-11.8,23.5-13.1,36.5-.9,9.4,1.2,19.6,8,26.5,3.3,3.9,8,6.1,12.6,8.2-31.1,0-62.1,0-93.2,0,4.8-22.7,17.1-43.2,32-60.9,22.3-25.7,50.5-45.8,80.7-61.3M7.4,64.7c2-7.7,3.7-15.6,7-22.9.1,8.1-.5,16.2.3,24.3,1.4,22.7,7.6,45.4,20.1,64.6-11.6.1-23.2,0-34.8,0,0-22.2,2.4-44.4,7.4-66"/>
    <path id="logo_x5F_barracuda_x5F_text" class="st0" d="M.3,150.6c9.1-.2,18.3,0,27.4,0,5.8,0,12.1.8,16.7,4.7,7,6.3,5.7,19.3-2.5,24-1.1.7-2.3,1.3-3.4,1.9,3.9,1.3,8.1,3,10.3,6.7,4.1,6.7,3.3,16.3-2.2,22.1-4.5,4.2-10.9,5.6-16.9,5.8-9.8,0-19.5-.1-29.2,0-.3-2.2-.4-4.5-.3-6.7.2-19.5-.1-38.9.1-58.4M6.5,155.9c-.1,7.7-.2,15.4,0,23.1,7.1,0,14.2,0,21.2,0,4.4-.1,9.5-.8,12.5-4.4,3.1-3.5,2.9-8.9.9-12.9-2.3-4-7-5.6-11.4-5.7-7.7-.2-15.5-.1-23.2,0M6.7,184.4c-.6,8.6-.2,17.2-.2,25.8,8.4.1,16.8.3,25.2,0,4.6-.1,9.3-2.3,11.8-6.3,2.4-4.7,2.3-11.1-1.6-15-3.4-3.5-8.5-4.4-13.2-4.4-7.3,0-14.7.1-22,0M322.4,150.7c1.9,0,3.7,0,5.6,0,.1,21.1.2,42.3,0,63.4-1.7,0-3.3,0-5-.1,0-2.6-.1-5.3-.2-7.9-6.3,11.1-23.7,12.5-31.6,2.6-5.4-6.5-6-15.5-5-23.5,1-5.9,4-12,9.3-15.2,6.1-3.9,14.5-3.9,20.8-.3,2.7,1.5,4.3,4.2,6.2,6.6,0-8.4-.1-16.9,0-25.4M302,172.3c-5,1.6-8.4,6.3-9.6,11.3-2,7.4-1.2,16,3.6,22.1,4.6,5.7,13.6,6.2,19.4,2.1,4.3-2.8,6.2-8.1,6.8-13,.6-5.8,0-12.1-3.4-16.9-3.5-5.3-10.8-7.5-16.8-5.6M203.5,172.9c7.1-7.5,20-8,28-1.8,3.5,2.7,4.8,7.1,5.8,11.2-2,.2-3.9.3-5.9.2-1.1-3.8-2.9-7.9-6.7-9.6-5.6-2.5-12.8-1.4-16.9,3.3-6.9,7.5-7.1,19.8-1.5,28.1,4.2,6.2,14,8.5,20,3.4,3.3-2.5,4.7-6.5,5.8-10.4h5.4c-.7,4.4-2.1,8.9-5.3,12.2-5.6,6.3-15.5,7-23,3.7-6.7-2.9-10.9-9.7-12.1-16.7-1.2-8.3,0-17.7,6.3-23.8M65.8,168.1c6.1-.2,12.2-.5,18.2.7,5.4,1.3,9.5,6.5,9.5,12.1.1,11.1,0,22.3,0,33.4-1.6,0-3.2.1-4.8,0-1.2-1.9-.5-4.5-.9-6.7-3.1,3.2-6.4,6.6-10.9,7.4-5.6,1-12.1,1-16.7-2.8-4.2-3.5-5.2-9.6-3.7-14.7,1.3-3.7,4.8-6.2,8.4-7.4,6.5-2.4,13.7-1.7,20.3-3.6,4.7-2.7,2.8-10.5-1.8-12.5-5.6-2.3-11.8-1.2-17.7-1.4,0-1.6,0-3.1,0-4.6M64.7,196.1c-4.8,3.2-3.3,11.1,1.6,13.4,7.2,3.6,17.4.3,20.5-7.3,1.6-3.8,1.1-8,1.1-12-7.5,2.9-16.3,1.4-23.2,5.8M116,170.4c3-1.8,6.5-2.2,9.9-2.5,0,1.5.1,2.9.2,4.4-4,1.1-8.1,2.2-11.3,4.9-3.8,3.1-5.8,8-5.8,12.8-.1,8.1.1,16.3,0,24.4-1.8,0-3.7,0-5.5,0-.1-15.2-.2-30.5,0-45.7,1.7,0,3.4,0,5.1,0,0,3.1.1,6.3.2,9.5,2.1-2.9,4-6.1,7.2-7.8M146.6,170c2.8-1.6,6.1-1.8,9.3-2,0,2,.8,5.2-2.2,5.1-7.5,1.1-14.1,7.3-14.6,15-.3,8.8,0,17.6-.1,26.3-1.9,0-3.7,0-5.6,0-.1-15.2-.1-30.5,0-45.7,1.7,0,3.4,0,5.2,0,0,3.1,0,6.3.1,9.4,2.2-3.1,4.5-6.5,8-8.2M162.8,168.3c5.6,0,11.1-.5,16.7.2,6.1.9,11.1,6.3,11,12.5,0,11.1,0,22.2.1,33.4-1.8,0-3.6,0-5.3,0,0-2.5,0-5-.1-7.5-2.6,3-5.1,6.4-9.1,7.6-5.7,2-12.4,1.7-17.6-1.3-5.6-3.4-6.5-11.1-4.3-16.8,1.7-3.7,5.8-5.6,9.5-6.7,5.9-1.7,12.1-1.4,17.9-2.8,2.6-.5,3.6-3.5,3.4-5.9,0-4-3.5-7.4-7.4-7.8-4.9-.8-9.8-.4-14.7-.5v-4.4h0ZM163,195.3c-4.7,2-5.7,9.1-2,12.4,5.4,5.5,14.9,3.6,20-1.3,4.5-4.1,4.1-10.6,3.9-16.2-7.1,2.5-15.1,1.6-21.9,5M242.5,168.2c1.8,0,3.6,0,5.4,0,.5,10.6,0,21.2.3,31.8.3,4.1,2.4,8.8,6.7,9.9,4.7,1.3,10.4,1,14-2.6,4-3.9,5.1-9.8,5.2-15.1,0-7.9,0-15.8,0-23.8,1.9,0,3.7,0,5.6,0,.3,15.3.3,30.6,0,45.8h-5.1c0-2.4,0-4.9-.1-7.3-2.9,3.2-5.9,6.6-10.3,7.7-6.2,1.8-14.2,1.1-18.5-4.3-3.4-4.2-3.3-9.9-3.3-15.1.2-8.9-.2-17.9.2-26.9M343.4,167.6c7.6.2,16.1-1.4,22.8,3,5,3.4,5.1,10,5,15.4,0,9.4.1,18.7-.2,28.1-1.7,0-3.4-.1-5.1-.2-.1-2.4-.2-4.7-.3-7.1-2.7,3-5.4,6.2-9.5,7.4-5.3,1.5-11.4,1.5-16.4-1.2-7.9-4.1-8.5-17.4-.6-21.7,7-4,15.4-3.1,23-5,2.8-.5,3.6-3.8,3.3-6.3-.2-3.8-3.6-6.9-7.3-7.4-4.9-.8-9.8-.2-14.7-.5,0-1.5,0-3.1,0-4.6M341.7,196c-4.5,3.6-2.4,11.3,2.6,13.4,6.8,2.9,15.7.1,19.4-6.3,2.3-4.2,1.6-9.1,1.7-13.7-7.5,3.7-16.8,1.6-23.7,6.7"/>
  </g>
</svg>