<?xml version="1.0" encoding="UTF-8"?><svg id="Layer_2" xmlns="http://www.w3.org/2000/svg" width="72" height="72" viewBox="0 0 72 72"><defs><style>.cls-1{fill:#fff;}</style></defs><g id="icon_bug"><path class="cls-1" d="M33.72,15.37l7.41-7.41,1.42-6.13c.19-.8-.31-1.61-1.12-1.79-.8-.19-1.61.31-1.79,1.11l-1.24,5.3-8.23,8.23-.99,6.94c-.44.43-.88.85-1.34,1.31l-5.68-5.21-7.07,4.98-5.59.62c-.82.1-1.41.83-1.32,1.65.04.35.2.66.43.89.31.31.75.48,1.22.43l5.98-.66,5.93-3.95,3.24,4.15c-.9.94-1.8,1.92-2.71,2.93l-8.01.75-8.1,8.37-4.87.66c-.82.11-1.39.86-1.28,1.68.04.34.2.63.42.86.32.32.78.49,1.26.43l5.9-.8,6.79-7.06,3.44.58c-5.45,7.43-9.01,15.85-4.81,23.23l29.91-29.9-9.76-9.76.55-2.43Z"/><path class="cls-1" d="M48.67,62.5l.62-5.6,4.99-7.07-5.21-5.67c.46-.46.88-.91,1.31-1.35l6.94-.98,8.22-8.23,5.3-1.23c.8-.19,1.3-.99,1.11-1.79-.18-.81-.99-1.31-1.79-1.12l-6.13,1.43-7.41,7.41-2.43.55-9.75-9.75-29.37,29.37c7.29,4.15,15.46.87,22.68-4.33l.59,3.5-7.06,6.79-.81,5.9c-.07.48.11.94.43,1.26.22.23.52.38.86.43.82.11,1.57-.46,1.68-1.28l.66-4.87,8.37-8.1.75-8.03c1.01-.9,1.99-1.79,2.93-2.69l4.16,3.23-3.96,5.93-.66,5.98c-.05.47.12.92.43,1.22.23.23.54.39.89.43.82.09,1.56-.5,1.65-1.32Z"/><path class="cls-1" d="M34.86,16.35l9.77,9.77,5.2-14.1c-4.87-.99-10.45.51-14.97,4.33Z"/><path class="cls-1" d="M56.53,15.47c-1.33-1.33-2.91-2.27-4.62-2.9l-4.4,11.92,11.92-4.4c-.63-1.71-1.57-3.29-2.9-4.62Z"/><path class="cls-1" d="M59.98,22.17l-14.1,5.2,9.77,9.77c3.82-4.53,5.31-10.1,4.33-14.97Z"/></g></svg>