<svg id="logo_barracuda" xmlns="http://www.w3.org/2000/svg" width="344.17" height="70.32" viewBox="0 0 344.17 70.32"><defs><style>.cls-1{fill:#4a8b2c;}.cls-2{fill:#fff;}.cls-3{fill:#82c341;}</style></defs><g id="logoSVG"><g id="logo_barra_bg"><path class="cls-3" d="M.86.03h68.6c.46,0,.86.39.86.86v57.57c0,6.51-5.27,11.86-11.86,11.86H.86c-.46,0-.86-.39-.86-.86V.86c0-.46.39-.86.86-.86v.03Z"/><path class="cls-1" d="M3.61,3.63h62.94v54.28c0,4.8-3.84,8.66-8.66,8.66H3.61V3.63h0Z"/></g><path id="logo_barra_fin" class="cls-2" d="M23.66,49.62h-8.87c0-14.03,3.78-22.98,3.78-22.98-1.2,15.07,5.09,22.98,5.09,22.98h0ZM59.39,16.36s-28.06,11.12-33.27,33.27h23.65s-16.96-4.41,9.62-33.27Z"/><g id="logo_barra_text2"><path class="cls-2" d="M82.74,35.66h17.24v3.39h-13.39v7.44h13.1v3.39h-13.1v8.01h13.39v3.39h-17.24v-25.6h0v-.02Z"/><path class="cls-2" d="M125.99,48.88c0-2.16-.93-3.6-3.21-3.6-1.89.11-3.6,1.14-4.62,2.64v13.28h-3.48v-12.35c0-2.16-.93-3.6-3.32-3.6-1.77.18-3.48,1.14-4.52,2.64v13.28h-3.48v-18.55h3.48v2.64c1.43-1.89,3.6-3.03,5.94-3.09,2.25-.18,4.41,1.2,4.98,3.48,1.43-2.07,3.78-3.39,6.23-3.48,3.39,0,5.27,1.89,5.27,5.66v13.39h-3.48v-12.35h.18l.03.03s0-.02,0-.02Z"/><path class="cls-2" d="M145.05,59.23c-1.6,1.71-3.78,2.52-6.02,2.46-3.39.18-6.3-2.46-6.41-5.84v-.29c0-4.23,3.32-6.02,6.41-6.02,2.25-.11,4.52.75,6.02,2.46v-3.09c0-2.25-1.89-3.66-4.52-3.66s-4.13.93-5.55,2.46l-1.5-2.34c2-2,4.8-3.09,7.62-3.03,4.05,0,7.44,1.77,7.44,6.51v12.53h-3.48v-2h0v-.15.02-.02ZM145.05,54.03c-1.14-1.43-2.91-2.16-4.7-2.16s-4.23,1.5-4.23,3.66,1.77,3.66,4.23,3.66,3.6-.75,4.7-2.16v-3.09h0v.11-.02Z"/><path class="cls-2" d="M152.21,37.43c0-1.2,1.14-2.16,2.34-2.07,1.14,0,2,.93,2.07,2.07,0,1.2-1.14,2.16-2.34,2.07-1.14,0-2-.93-2.07-2.07ZM152.75,42.74h3.48v18.46h-3.48s0-18.55,0-18.46Z"/><path class="cls-2" d="M160.46,35.66h3.48v25.6h-3.48v-25.6Z"/><path class="cls-2" d="M177.17,35.66h10.76c5.27,0,8.19,3.6,8.19,7.83s-2.91,7.83-8.19,7.83h-6.98v9.9h-3.84v-25.6h0l.11.11-.03-.07s-.02,0-.02,0ZM187.43,39.04h-6.41v8.94h6.41c2.46.18,4.62-1.71,4.8-4.13s-1.71-4.62-4.13-4.8h-.68.02-.01Z"/><path class="cls-2" d="M198.54,42.74h3.48v2.82c1.43-2,3.66-3.21,6.02-3.32v3.48c-.39,0-.75-.11-1.2-.11-2,.11-3.66,1.14-4.92,2.64v12.89h-3.48v-18.55l.11.11v.03l-.02.02h0Z"/><path class="cls-2" d="M208.44,51.97c0-5.27,3.6-9.68,9.33-9.68s9.33,4.35,9.33,9.68-3.6,9.68-9.33,9.68-9.33-4.41-9.33-9.68ZM223.51,51.97c0-3.48-2.07-6.59-5.73-6.59s-5.73,3.21-5.73,6.59,2.16,6.69,5.73,6.69,5.73-3.09,5.73-6.69h0Z"/><path class="cls-2" d="M230.85,57.13v-11.39h-3.09v-3.03h3.09v-5.09h3.48v5.09h3.78v3.03h-3.78v10.64c0,1.32.57,2.25,1.77,2.25s1.43-.29,1.89-.75l.86,2.64c-1.03.86-2.25,1.32-3.6,1.2-2.91,0-4.41-1.71-4.41-4.62h0v.03h.01Z"/><path class="cls-2" d="M248.87,42.25c5.55,0,9.05,4.35,9.05,9.98v.86h-14.71c.18,3.32,3.03,5.84,6.3,5.73,2.07,0,4.05-.75,5.45-2.16l1.6,2.25c-2,1.89-4.7,2.82-7.44,2.75-5.55,0-9.5-3.95-9.5-9.68s3.84-9.68,9.23-9.68h.03v-.05ZM243.2,50.65h11.3c0-3.03-2.34-5.45-5.45-5.55h-.18c-3.09,0-5.66,2.46-5.66,5.55h-.01Z"/><path class="cls-2" d="M269.39,42.25c2.75-.18,5.27,1.03,6.98,3.32l-2.25,2.16c-1.03-1.5-2.75-2.34-4.52-2.34-3.66,0-6.02,2.82-6.02,6.59s2.34,6.69,6.02,6.69,3.48-.86,4.52-2.25l2.25,2.16c-1.6,2.16-4.23,3.39-6.98,3.32-5.66,0-9.44-4.13-9.44-9.68s3.84-9.68,9.44-9.68c0,0,0-.29,0-.29Z"/><path class="cls-2" d="M280.04,57.13v-11.39h-3.09v-3.03h3.09v-5.09h3.48v5.09h3.78v3.03h-3.78v10.64c0,1.32.57,2.25,1.77,2.25s1.43-.29,1.89-.75l.86,2.64c-.93.86-2.25,1.32-3.6,1.2-2.91,0-4.41-1.71-4.41-4.62h0v.03h.01Z"/><path class="cls-2" d="M289.77,37.43c0-1.2.93-2.25,2.25-2.25s2.25.93,2.25,2.16h0c0,1.2-1.03,2.25-2.25,2.25s-2.25-.93-2.25-2.16ZM290.22,42.74h3.48v18.46h-3.48v-18.55h0v.11-.02Z"/><path class="cls-2" d="M296.52,51.97c0-5.27,3.6-9.68,9.33-9.68s9.33,4.35,9.33,9.68-3.6,9.68-9.33,9.68-9.33-4.41-9.33-9.68ZM311.59,51.97c0-3.48-2-6.59-5.73-6.59s-5.73,3.21-5.73,6.59,2.07,6.69,5.73,6.69,5.73-3.09,5.73-6.69Z"/><path class="cls-2" d="M330.65,49.4c0-3.09-1.6-4.05-3.95-4.05s-3.84,1.03-5.09,2.64v13.28h-3.48v-18.55h3.48v2.64c1.6-1.89,3.95-3.03,6.51-3.09,3.84,0,5.94,2.16,5.94,5.94v13h-3.39v-11.86h0v.11l-.03-.03.02-.02h0Z"/><path class="cls-2" d="M335.53,41.89h-.75v-5.37h-1.71v-.75h4.23v.75h-1.77v5.37h0ZM343.36,36.8l-2.16,5.09h-.18l-2.16-5.09v5.09h-.75v-6.12h1.2l1.89,4.41,1.77-4.41h1.2v6.12h-.86v-5.09h.05,0Z"/></g><path id="logo_barra_text1" class="cls-2" d="M114.69,12.68v2.52h0c.29-.86.86-1.5,1.59-2.07.75-.46,1.71-.75,2.52-.68v1.14c-1.14,0-2.16.46-2.91,1.32-.39.39-.68.86-.86,1.32s-.29,1.03-.29,1.59v5.84h-1.32v-10.94h1.2v-.11l.03.03.03.03h.01ZM106.69,12.68v10.94h1.32v-5.84c0-.57,0-1.14.29-1.59.18-.46.46-.93.86-1.32.75-.75,1.89-1.2,2.91-1.32v-1.14c-.93,0-1.77.18-2.52.68s-1.32,1.2-1.59,2.07h0v-2.64h-1.32l.11.18h-.03l-.03-.02h0ZM135.43,14.18c.57.57.86,1.2,1.03,2h1.32c0-1.14-.57-2.16-1.5-2.82-.86-.68-1.89-1.03-3.03-.93-.75,0-1.5.18-2.16.46s-1.2.75-1.59,1.2c-.46.57-.75,1.14-1.03,1.89-.18.75-.39,1.5-.39,2.25s.11,1.5.39,2.16c.18.68.57,1.32,1.03,1.89s1.03,1.03,1.59,1.32c.68.29,1.43.46,2.16.46,1.14,0,2.25-.39,3.09-1.14.86-.86,1.32-2,1.5-3.21h-1.32c0,.46-.18.86-.39,1.2-.18.39-.39.75-.75.93-.29.29-.57.46-.93.68s-.75.18-1.14.18c-.57,0-1.14-.11-1.71-.39-.46-.29-.86-.68-1.2-1.14-.39-.46-.57-.93-.75-1.5s-.29-1.14-.29-1.71,0-1.14.29-1.71c.18-.57.39-1.03.75-1.5.29-.46.75-.86,1.2-1.14.57-.29,1.14-.39,1.71-.39s1.5.18,2.07.75M147.75,23.62v-10.94h-1.32v5.73c0,.57,0,1.14-.18,1.59-.11.46-.29.93-.57,1.43-.29.39-.57.75-1.03.93-1.2.57-2.75.46-3.78-.39-.46-.68-.75-1.43-.68-2.25v-7.16h-1.32v7.16c0,.57,0,1.14.18,1.77.11.46.39.93.68,1.32.39.39.75.68,1.2.86.57.18,1.14.29,1.77.29s1.6-.18,2.25-.57c.63-.39,1.2-.93,1.6-1.71h0v2h1.2l-.11-.11.07.03h.03v.02ZM158.98,23.62v-15.17h-1.32v6.3h0c-.11-.39-.39-.75-.57-1.03-.29-.29-.57-.57-.93-.75s-.75-.39-1.14-.46-.86-.11-1.2-.11c-.75,0-1.5.11-2.16.46-.57.29-1.14.75-1.5,1.2-.39.57-.75,1.2-.93,1.89-.39,1.43-.39,3.03,0,4.41.18.68.46,1.32.93,1.89.39.57.93.93,1.5,1.2.68.29,1.43.46,2.16.46s.86,0,1.2-.18c.39-.11.75-.29,1.14-.46.39-.18.68-.46.93-.75s.46-.68.68-.93h0v2.07h1.32v-.11h-.11v.07h0ZM150.32,19.73c-.29-1.14-.29-2.25,0-3.39.11-.57.39-1.03.68-1.5s.68-.86,1.14-1.14,1.03-.46,1.6-.39c.68,0,1.2.11,1.77.39.46.29.86.68,1.2,1.14.29.46.57.93.68,1.5.29,1.14.29,2.25,0,3.39-.11.57-.39,1.03-.68,1.5-.29.46-.75.86-1.2,1.14-.57.29-1.14.46-1.77.39-.57,0-1.14-.11-1.6-.39-.46-.29-.86-.68-1.14-1.14-.29-.46-.57-.93-.68-1.5M126.67,14.18c.29.57.39,1.2.39,1.77v7.62h-1.32v-1.89h0c-.18.39-.46.68-.75.93s-.57.46-.86.75c-.39.18-.75.39-1.14.39-.46.11-.93.18-1.43.18s-.93,0-1.43-.18c-.39-.11-.86-.29-1.14-.57-.39-.29-.68-.57-.75-1.03-.18-.46-.29-.93-.29-1.43s.18-1.32.57-1.77c.39-.46.86-.75,1.32-.93.68-.18,1.2-.39,1.89-.46l2.16-.29c.29,0,.57,0,.75-.11.18,0,.39-.11.57-.18.18-.11.29-.29.39-.46,0-.18.11-.46.11-.75s0-.68-.18-.93c-.11-.29-.39-.57-.68-.68-.29-.18-.57-.29-.93-.39-.39,0-.75-.11-1.14-.11h-2.46v-1.14h2.64c.46,0,.93,0,1.32.11.46,0,.93.29,1.32.57s.75.68.93,1.14M125.63,17.66h0c-.11.18-.29.29-.46.39-.18,0-.46.11-.68.11-.57.11-1.14.18-1.77.29-.57,0-1.14.18-1.71.39-.46.11-.86.39-1.2.68-.29.39-.46.75-.46,1.2s0,.68.18.93c.11.29.29.46.57.68.18.18.46.39.75.46s.57.18.93.18,1.03,0,1.5-.18c.46-.18.86-.39,1.2-.75.75-.68,1.14-1.59,1.14-2.52v-1.71h0v-.11l.03-.03-.02-.02h0ZM104.33,14.18c.29.57.39,1.2.39,1.77v7.62h-1.32v-1.89h0c-.18.39-.46.68-.75.93s-.57.46-.86.75c-.39.18-.75.39-1.14.39-.46.11-.93.18-1.43.18s-.93,0-1.43-.18c-.46-.11-.86-.29-1.14-.57-.39-.29-.68-.57-.75-1.03-.18-.46-.29-.93-.29-1.43s.18-1.32.57-1.77.86-.75,1.32-.93c.57-.18,1.2-.39,1.89-.46l2.16-.29c.29,0,.57,0,.75-.11.18,0,.39-.11.57-.18.18-.11.29-.29.39-.46,0-.18.11-.46.11-.75s0-.68-.18-.93-.39-.57-.68-.68c-.29-.18-.57-.29-.93-.39-.39,0-.75-.11-1.14-.11h-2.46v-1.14h2.64c.46,0,.93,0,1.43.11.46,0,.93.29,1.32.57s.75.68.93,1.14M103.37,17.77h0c-.11.18-.29.29-.46.39-.18,0-.46.11-.68.11-.57.11-1.14.18-1.77.29-.57,0-1.14.18-1.71.39-.46.11-.86.39-1.2.68-.29.29-.57.75-.57,1.14s0,.68.18.93c.11.29.29.46.57.68.18.18.46.39.75.46s.57.18.93.18,1.03,0,1.5-.18c.46-.18.86-.39,1.2-.68.75-.68,1.14-1.59,1.14-2.52v-1.71h0l.11-.11.03-.03s-.02-.02-.02-.02ZM168.48,14.18c.29.57.39,1.14.39,1.77v7.73h-1.32v-2h0c-.18.39-.46.68-.75.93-.18.29-.57.46-.86.68-.29.18-.68.39-1.03.46-.46.11-.93.18-1.43.18s-.93,0-1.43-.18c-.39-.11-.86-.29-1.14-.57-.39-.29-.57-.57-.75-1.03s-.29-.93-.29-1.43.18-1.32.57-1.77c.39-.46.86-.75,1.32-.93.57-.18,1.2-.39,1.89-.46l2.16-.29c.29,0,.57,0,.75-.11.18,0,.39-.11.57-.18.18-.11.29-.29.39-.46,0-.18.11-.46.11-.75s0-.68-.18-.93c-.11-.29-.39-.57-.68-.68-.29-.18-.57-.29-.93-.39-.39,0-.75-.11-1.14-.11h-2.46v-1.14h2.64c.46,0,.93,0,1.43.11.46,0,.93.29,1.32.57.39.29.75.68.93,1.14M167.56,17.66h0c-.11.18-.29.29-.46.39-.18,0-.39.11-.68.11-.57.11-1.14.18-1.77.29-.57,0-1.14.18-1.71.39-.46.11-.86.39-1.2.68-.39.39-.46.75-.46,1.2s0,.68.18.93c.11.29.29.46.57.68.18.18.46.39.75.46s.57.18.93.18,1.03,0,1.5-.18c.46-.18.86-.39,1.2-.68.75-.68,1.14-1.59,1.14-2.52v-1.77h0v-.11l.03-.03-.02-.02h0ZM82.74,8.06v15.64h6.69c.75,0,1.5,0,2.16-.18.57-.11,1.03-.39,1.5-.57.39-.18.75-.46,1.03-.86.18-.29.39-.68.57-.93.11-.29.18-.68.29-.93v-.86c0-.93-.29-1.89-.93-2.64-.63-.75-1.59-1.14-2.52-1.2h0c.39,0,.75-.18,1.14-.46.68-.46,1.14-1.14,1.43-1.89.11-.39.18-.75.18-1.2s-.11-1.32-.39-1.77c-.29-.46-.68-.86-1.14-1.2-.46-.29-1.03-.57-1.59-.68-.68-.11-1.2-.18-1.89-.18h-6.51v-.07l-.02-.02h0ZM84.18,14.92v-5.55h5.16c2.34,0,3.6,1.03,3.6,2.91s0,.75-.18,1.03c-.18.39-.39.57-.68.86s-.68.46-1.14.57c-.46.18-1.03.18-1.59.18h-5.17ZM84.18,22.48v-6.23h5.16c1.03,0,2.16.18,3.03.75.75.46,1.14,1.43,1.14,2.25s0,1.03-.29,1.59c-.18.39-.57.75-.93,1.03-.36.29-.86.46-1.32.46-.57.11-1.03.11-1.59.11h-5.16l-.03.03v.02h-.01Z"/></g></svg>