<svg height="15.62" viewBox="0 0 178 15.62" width="178" xmlns="http://www.w3.org/2000/svg"><path d="m221.551 1111.23v-2.34h-6.661v-12.78h-2.651v15.12zm17.288 0v-2.34h-7.7v-4.19h7.545v-2.33h-7.545v-3.92h7.7v-2.34h-10.355v15.12zm20.845 0-5.936-15.12h-3.309l-5.936 15.12h3.014l1.11-2.9h6.933l1.11 2.9zm-4.871-5.24h-5.438l2.719-7.2zm22.748 5.24-3.694-5.94a4.245 4.245 0 0 0 3.58-4.44 4.589 4.589 0 0 0 -4.939-4.74h-6.639v15.12h2.651v-5.65h2.628l3.354 5.65zm-5.416-7.98h-3.625v-4.8h3.625a2.406 2.406 0 1 1 0 4.8zm25.581 7.98v-15.12h-2.651v10.49l-7.727-10.49h-2.719v15.12h2.651v-10.79l7.886 10.79zm33.805 0v-15.12h-3.739l-4.124 9.95-4.1-9.95h-3.738v15.12h2.651v-11.22l4.622 11.22h1.133l4.645-11.22v11.22h2.651zm14.8.27a7.821 7.821 0 1 0 -7.727-7.82 7.5 7.5 0 0 0 7.722 7.82zm0-2.36c-3.059 0-5.008-2.36-5.008-5.46 0-3.13 1.949-5.46 5.008-5.46 3.036 0 5.007 2.33 5.007 5.46-.005 3.1-1.976 5.46-5.012 5.46zm26.509 2.09-3.693-5.94a4.245 4.245 0 0 0 3.58-4.44 4.589 4.589 0 0 0 -4.939-4.74h-6.639v15.12h2.651v-5.65h2.628l3.354 5.65zm-5.415-7.98h-3.625v-4.8h3.625a2.406 2.406 0 1 1 -.005 4.8zm22.839 7.98v-2.34h-7.7v-4.19h7.536v-2.33h-7.545v-3.92h7.7v-2.34h-10.355v15.12h10.355z" fill="#090919" fill-rule="evenodd" transform="translate(-212.25 -1095.88)"/></svg>