<svg xmlns="http://www.w3.org/2000/svg" xmlns:xlink="http://www.w3.org/1999/xlink" width="12.656" height="22.063" viewBox="0 0 12.656 22.063">
  <defs>
    <style>
      .cls-1 {
        fill: #fff;
        fill-rule: evenodd;
        filter: url(#filter);
      }
    </style>
    <filter id="filter" x="4.063" y="2.813" width="12.656" height="22.063" filterUnits="userSpaceOnUse">
      <feFlood result="flood" flood-color="#fff"/>
      <feComposite result="composite" operator="in" in2="SourceGraphic"/>
      <feBlend result="blend" in2="SourceGraphic"/>
    </filter>
  </defs>
  <path id="num0" class="cls-1" d="M7.2,3.73A6.517,6.517,0,0,0,4.91,6.257a7.391,7.391,0,0,0-.85,3.5v8.159A7.409,7.409,0,0,0,4.9,21.4,6.38,6.38,0,0,0,7.21,23.938a5.9,5.9,0,0,0,6.357.015,6.554,6.554,0,0,0,2.3-2.549,7.364,7.364,0,0,0,.85-3.486V9.758a7.394,7.394,0,0,0-.85-3.5,6.7,6.7,0,0,0-2.3-2.534A5.711,5.711,0,0,0,10.389,2.8,5.806,5.806,0,0,0,7.2,3.73Zm7.888,17.278a5.662,5.662,0,0,1-1.977,2.168,5.01,5.01,0,0,1-5.449,0,5.633,5.633,0,0,1-1.978-2.168,6.406,6.406,0,0,1-.732-3V9.67a6.293,6.293,0,0,1,.732-3A5.674,5.674,0,0,1,7.664,4.5a5.059,5.059,0,0,1,2.725-.806,4.917,4.917,0,0,1,2.725.806,5.794,5.794,0,0,1,1.977,2.168,6.3,6.3,0,0,1,.732,3v8.335A6.3,6.3,0,0,1,15.091,21.008Z" transform="translate(-4.063 -2.813)"/>
</svg>
