<svg xmlns="http://www.w3.org/2000/svg" xmlns:xlink="http://www.w3.org/1999/xlink" width="13.531" height="21.75" viewBox="0 0 13.531 21.75">
  <defs>
    <style>
      .cls-1 {
        fill: #fff;
        fill-rule: evenodd;
        filter: url(#filter);
      }
    </style>
    <filter id="filter" x="3.781" y="2.781" width="13.531" height="21.75" filterUnits="userSpaceOnUse">
      <feFlood result="flood" flood-color="#fff"/>
      <feComposite result="composite" operator="in" in2="SourceGraphic"/>
      <feBlend result="blend" in2="SourceGraphic"/>
    </filter>
  </defs>
  <path id="num2" class="cls-1" d="M5.379,23.645l8.569-10.312a10.116,10.116,0,0,0,1.641-2.468,5.5,5.5,0,0,0,.41-2.1A6,6,0,0,0,13.069,3.6a5.724,5.724,0,0,0-2.988-.813,5.825,5.825,0,0,0-3.054.85A6.489,6.489,0,0,0,4.749,5.957,7.261,7.261,0,0,0,3.767,9.2V9.216a0.414,0.414,0,0,0,.132.315,0.434,0.434,0,0,0,.308.125,0.467,0.467,0,0,0,.322-0.117,0.426,0.426,0,0,0,.146-0.293,6.175,6.175,0,0,1,.835-2.813A5.606,5.606,0,0,1,7.474,4.426a4.967,4.967,0,0,1,2.607-.732,4.814,4.814,0,0,1,2.5.688,5.073,5.073,0,0,1,1.831,1.86,4.974,4.974,0,0,1,.674,2.52,4.646,4.646,0,0,1-.381,1.824,9.353,9.353,0,0,1-1.479,2.2l-9.141,11a0.43,0.43,0,0,0-.117.293v0.044a0.468,0.468,0,0,0,.146.293,0.448,0.448,0,0,0,.308.117H16.863a0.45,0.45,0,0,0,.454-0.454V24.07a0.451,0.451,0,0,0-.469-0.425H5.379Z" transform="translate(-3.781 -2.781)"/>
</svg>
