<svg xmlns="http://www.w3.org/2000/svg" xmlns:xlink="http://www.w3.org/1999/xlink" width="14" height="21.75" viewBox="0 0 14 21.75">
  <defs>
    <style>
      .cls-1 {
        fill: #fff;
        fill-rule: evenodd;
        filter: url(#filter);
      }
    </style>
    <filter id="filter" x="3.625" y="3.125" width="14" height="21.75" filterUnits="userSpaceOnUse">
      <feFlood result="flood" flood-color="#fff"/>
      <feComposite result="composite" operator="in" in2="SourceGraphic"/>
      <feBlend result="blend" in2="SourceGraphic"/>
    </filter>
  </defs>
  <path id="num5" class="cls-1" d="M6.206,11.824l1.8-7.793h6.841A0.422,0.422,0,0,0,15.157,3.9a0.46,0.46,0,0,0,0-.645,0.422,0.422,0,0,0-.308-0.132H7.657a0.447,0.447,0,0,0-.278.1,0.414,0.414,0,0,0-.161.249l-2.2,9.448a0.337,0.337,0,0,0,.19.425,0.4,0.4,0,0,0,.483-0.059,6.285,6.285,0,0,1,2.036-1.3A7.146,7.146,0,0,1,10.4,11.56a6.66,6.66,0,0,1,2.432.469,6.359,6.359,0,0,1,2.021,1.3,6.042,6.042,0,0,1,1.377,2.036,6.71,6.71,0,0,1,.513,2.578,5.949,5.949,0,0,1-.835,3.164,5.5,5.5,0,0,1-2.212,2.124,6.626,6.626,0,0,1-3.076.747,6.132,6.132,0,0,1-2.959-.718,5.968,5.968,0,0,1-2.2-1.948,5.652,5.652,0,0,1-.952-2.71A0.517,0.517,0,0,0,4.375,18.3a0.388,0.388,0,0,0-.308-0.117H4.053a0.422,0.422,0,0,0-.308.132,0.306,0.306,0,0,0-.132.322v0.029A5.741,5.741,0,0,0,4.7,21.814a6.606,6.606,0,0,0,2.52,2.241,7.163,7.163,0,0,0,3.4.82,7.077,7.077,0,0,0,3.516-.894,6.726,6.726,0,0,0,3.5-6.035,7.384,7.384,0,0,0-2.139-5.185,7.437,7.437,0,0,0-2.314-1.538,7,7,0,0,0-2.783-.571,7.511,7.511,0,0,0-4.189,1.172h0Z" transform="translate(-3.625 -3.125)"/>
</svg>
