<svg xmlns="http://www.w3.org/2000/svg" xmlns:xlink="http://www.w3.org/1999/xlink" width="13.906" height="22.063" viewBox="0 0 13.906 22.063">
  <defs>
    <style>
      .cls-1 {
        fill: #fff;
        fill-rule: evenodd;
        filter: url(#filter);
      }
    </style>
    <filter id="filter" x="3.5" y="2.813" width="13.906" height="22.063" filterUnits="userSpaceOnUse">
      <feFlood result="flood" flood-color="#fff"/>
      <feComposite result="composite" operator="in" in2="SourceGraphic"/>
      <feBlend result="blend" in2="SourceGraphic"/>
    </filter>
  </defs>
  <path id="num8" class="cls-1" d="M15.23,10.732a4.792,4.792,0,0,0,.124-5.369,5.4,5.4,0,0,0-2.065-1.875A5.88,5.88,0,0,0,10.447,2.8a6.171,6.171,0,0,0-2.842.688A5.273,5.273,0,0,0,5.54,5.364a4.848,4.848,0,0,0-.762,2.593,4.691,4.691,0,0,0,.879,2.769A5.5,5.5,0,0,0,8,12.615a6.758,6.758,0,0,0-3.252,2.3,5.711,5.711,0,0,0-1.26,3.633,5.968,5.968,0,0,0,.923,3.179,6.574,6.574,0,0,0,2.534,2.3,7.336,7.336,0,0,0,3.5.85,7.308,7.308,0,0,0,3.486-.85,6.576,6.576,0,0,0,2.534-2.3,5.863,5.863,0,0,0-.322-6.811,6.794,6.794,0,0,0-3.267-2.3A5.457,5.457,0,0,0,15.23,10.732ZM8.089,4.265a5.123,5.123,0,0,1,4.7,0A4.617,4.617,0,0,1,14.5,5.818a3.75,3.75,0,0,1,.615,2.139,4.23,4.23,0,0,1-.615,2.168,4.282,4.282,0,0,1-1.626,1.582,5.169,5.169,0,0,1-2.432.513A4.914,4.914,0,0,1,8,11.707a4.282,4.282,0,0,1-1.626-1.582A4.1,4.1,0,0,1,5.76,7.957a3.882,3.882,0,0,1,.63-2.139,4.5,4.5,0,0,1,1.7-1.553h0ZM7.444,23.25a5.658,5.658,0,0,1-2.168-1.978,5.073,5.073,0,0,1,.176-5.742A5.786,5.786,0,0,1,8,13.508a6.439,6.439,0,0,1,2.446-.4,6.44,6.44,0,0,1,2.446.4,5.9,5.9,0,0,1,2.549,2.021,5.009,5.009,0,0,1,.967,3.018,5.1,5.1,0,0,1-.791,2.725A5.674,5.674,0,0,1,13.45,23.25a6.239,6.239,0,0,1-3,.732,6.293,6.293,0,0,1-3-.732h0Z" transform="translate(-3.5 -2.813)"/>
</svg>
