<svg xmlns="http://www.w3.org/2000/svg" xmlns:xlink="http://www.w3.org/1999/xlink" width="16.25" height="19.469" viewBox="0 0 16.25 19.469">
  <defs>
    <style>
      .cls-1 {
        fill: #fff;
        fill-rule: evenodd;
        filter: url(#filter);
      }
    </style>
    <filter id="filter" x="2.281" y="4.156" width="16.25" height="19.469" filterUnits="userSpaceOnUse">
      <feFlood result="flood" flood-color="#fff"/>
      <feComposite result="composite" operator="in" in2="SourceGraphic"/>
      <feBlend result="blend" in2="SourceGraphic"/>
    </filter>
  </defs>
  <path id="num_" data-name="num%" class="cls-1" d="M14.49,6.25a0.413,0.413,0,0,0-.212-0.271,0.43,0.43,0,0,0-.469.015,0.442,0.442,0,0,0-.146.176L6.324,21.213a0.454,0.454,0,0,0-.044.205,0.451,0.451,0,0,0,.439.44A0.405,0.405,0,0,0,6.968,21.8a0.511,0.511,0,0,0,.161-0.19L14.424,6.638A0.615,0.615,0,0,0,14.49,6.25Zm0.652,10.276a3.206,3.206,0,0,0-2.4,1.04,3.648,3.648,0,0,0,0,5.01,3.278,3.278,0,0,0,4.79,0,3.648,3.648,0,0,0,0-5.01,3.191,3.191,0,0,0-2.388-1.04h0Zm1.78,5.405a2.386,2.386,0,0,1-1.794.776,2.346,2.346,0,0,1-1.772-.776,2.614,2.614,0,0,1-.732-1.86,2.583,2.583,0,0,1,.732-1.86,2.394,2.394,0,0,1,1.787-.776,2.369,2.369,0,0,1,1.772.762A2.718,2.718,0,0,1,16.922,21.931ZM8.052,10.212a3.492,3.492,0,0,0,1-2.5,3.492,3.492,0,0,0-1-2.5,3.191,3.191,0,0,0-2.388-1.04,3.206,3.206,0,0,0-2.4,1.04,3.491,3.491,0,0,0-1,2.5,3.491,3.491,0,0,0,1,2.5,3.189,3.189,0,0,0,2.388,1.04A3.206,3.206,0,0,0,8.052,10.212ZM7.437,9.575a2.374,2.374,0,0,1-1.787.769,2.368,2.368,0,0,1-1.772-.762A2.606,2.606,0,0,1,3.13,7.707a2.556,2.556,0,0,1,.747-1.86,2.424,2.424,0,0,1,1.787-.776,2.369,2.369,0,0,1,1.772.762,2.6,2.6,0,0,1,.732,1.875A2.609,2.609,0,0,1,7.437,9.575Z" transform="translate(-2.281 -4.156)"/>
</svg>
