<svg xmlns="http://www.w3.org/2000/svg" width="211.5" height="72.62" viewBox="0 0 211.5 72.62">
  <defs>
    <style>
      .cls-1 {
        fill: #fff;
        fill-rule: evenodd;
      }
    </style>
  </defs>
  <path id="ABSOLUTE_BEAST" data-name="ABSOLUTE BEAST" class="cls-1" d="M3026.72,1298.11h5.93l2.42-5.94h11.2l2.42,5.94h6.09l-11.35-26.66h-5.37Zm10.43-11.08,3.52-8.58,3.52,8.58h-7.04Zm21.68,11.08h12.59c5.98,0,9.91-2.42,9.91-7.26v-0.08c0-3.55-1.89-5.33-4.95-6.5a6.149,6.149,0,0,0,3.47-5.71v-0.08a6.075,6.075,0,0,0-1.81-4.5c-1.51-1.51-3.9-2.34-6.92-2.34h-12.29v26.47Zm5.67-15.77v-5.6h5.75c2.46,0,3.82.99,3.82,2.73v0.07c0,1.97-1.63,2.8-4.2,2.8h-5.37Zm0,10.66v-5.82h6.73c2.99,0,4.31,1.1,4.31,2.88v0.07c0,1.97-1.55,2.87-4.12,2.87h-6.92Zm31.02,5.49c5.71,0,9.72-2.95,9.72-8.21v-0.07c0-4.62-3.03-6.55-8.4-7.94-4.57-1.18-5.71-1.74-5.71-3.48v-0.08c0-1.28,1.18-2.31,3.41-2.31a12.479,12.479,0,0,1,6.88,2.61l3.02-4.38a15.28,15.28,0,0,0-9.83-3.37c-5.41,0-9.26,3.18-9.26,7.98v0.08c0,5.25,3.44,6.73,8.77,8.09,4.42,1.13,5.33,1.89,5.33,3.36v0.08c0,1.55-1.44,2.49-3.82,2.49a12.117,12.117,0,0,1-7.9-3.21l-3.44,4.12A16.812,16.812,0,0,0,3095.52,1298.49Zm27.62,0.07a13.687,13.687,0,0,0,14.1-13.69v-0.07c0-7.53-5.86-13.61-14.03-13.61a13.679,13.679,0,0,0-14.1,13.68v0.08C3109.11,1292.48,3114.97,1298.56,3123.14,1298.56Zm0.07-5.37a8.035,8.035,0,0,1-8.01-8.32v-0.07a7.911,7.911,0,0,1,7.94-8.24,8.033,8.033,0,0,1,8.01,8.31v0.08A7.911,7.911,0,0,1,3123.21,1293.19Zm19.18,4.92h19.02v-5.29h-13.2v-21.18h-5.82v26.47Zm33.67,0.42c7.11,0,11.61-3.94,11.61-11.95v-14.94h-5.83v15.16c0,4.2-2.15,6.36-5.7,6.36s-5.71-2.24-5.71-6.55v-14.97h-5.83v15.13C3164.6,1294.56,3168.95,1298.53,3176.06,1298.53Zm23.68-.42h5.82v-21.1h8.06v-5.37h-21.93v5.37h8.05v21.1Zm18.32,0h20.15v-5.18h-14.37v-5.56h12.48v-5.18h-12.48v-5.37h14.18v-5.18h-19.96v26.47Zm-146.95,45.33h12.59c5.97,0,9.91-2.42,9.91-7.26v-0.07c0-3.56-1.89-5.34-4.96-6.51a6.157,6.157,0,0,0,3.48-5.71v-0.07a6.059,6.059,0,0,0-1.81-4.5c-1.52-1.52-3.9-2.35-6.92-2.35h-12.29v26.47Zm5.67-15.77v-5.59h5.75c2.45,0,3.82.98,3.82,2.72v0.07c0,1.97-1.63,2.8-4.2,2.8h-5.37Zm0,10.67v-5.83h6.73c2.99,0,4.31,1.1,4.31,2.88v0.07c0,1.97-1.55,2.88-4.12,2.88h-6.92Zm21.6,5.1h20.16v-5.18h-14.37v-5.56h12.47v-5.18h-12.47v-5.37h14.18v-5.18h-19.97v26.47Zm23.04,0h5.94l2.42-5.94h11.19l2.42,5.94h6.09l-11.34-26.66h-5.37Zm10.44-11.08,3.51-8.58,3.52,8.58h-7.03Zm30.71,11.46c5.71,0,9.72-2.95,9.72-8.21v-0.07c0-4.62-3.03-6.54-8.4-7.94-4.57-1.18-5.7-1.74-5.7-3.48v-0.08c0-1.28,1.17-2.3,3.4-2.3a12.377,12.377,0,0,1,6.88,2.61l3.03-4.39a15.328,15.328,0,0,0-9.84-3.37c-5.4,0-9.26,3.18-9.26,7.98v0.08c0,5.25,3.44,6.73,8.77,8.09,4.43,1.13,5.33,1.89,5.33,3.37v0.07c0,1.55-1.43,2.5-3.82,2.5a12.129,12.129,0,0,1-7.9-3.22l-3.44,4.12A16.831,16.831,0,0,0,3162.57,1343.82Zm20.36-.38h5.82v-21.1h8.06v-5.37h-21.93v5.37h8.05v21.1Z" transform="translate(-3026.72 -1271.19)"/>
</svg>
