<svg xmlns="http://www.w3.org/2000/svg" xmlns:xlink="http://www.w3.org/1999/xlink" width="13.906" height="22.063" viewBox="0 0 13.906 22.063">
  <defs>
    <style>
      .cls-1 {
        fill: #fff;
        fill-rule: evenodd;
        filter: url(#filter);
      }
    </style>
    <filter id="filter" x="3.375" y="2.813" width="13.906" height="22.063" filterUnits="userSpaceOnUse">
      <feFlood result="flood" flood-color="#fff"/>
      <feComposite result="composite" operator="in" in2="SourceGraphic"/>
      <feBlend result="blend" in2="SourceGraphic"/>
    </filter>
  </defs>
  <path id="num3" class="cls-1" d="M13.8,13.171a7.425,7.425,0,0,0-1.582-.542,5.2,5.2,0,0,0,1.1-.388,4.364,4.364,0,0,0,.923-0.564A5.21,5.21,0,0,0,15.523,10a4.654,4.654,0,0,0,.461-2.043,4.706,4.706,0,0,0-.762-2.593,5.4,5.4,0,0,0-2.065-1.875A5.993,5.993,0,0,0,10.315,2.8,5.759,5.759,0,0,0,6.5,4.155,4.88,4.88,0,0,0,4.676,7.488a0.113,0.113,0,0,0-.015.044,0.45,0.45,0,0,0,.454.454,0.448,0.448,0,0,0,.308-0.117,0.426,0.426,0,0,0,.146-0.293A3.983,3.983,0,0,1,7.1,4.822a4.9,4.9,0,0,1,3.215-1.128,5.1,5.1,0,0,1,2.388.571,4.5,4.5,0,0,1,1.736,1.553,3.851,3.851,0,0,1,.637,2.139,4.188,4.188,0,0,1-.154,1.135,3.525,3.525,0,0,1-.564,1.113,4.1,4.1,0,0,1-1.025.982,5.526,5.526,0,0,1-1.6.7,9.494,9.494,0,0,1-2.234.322,0.467,0.467,0,0,0-.315.146,0.461,0.461,0,0,0,0,.63,0.465,0.465,0,0,0,.315.146,10.652,10.652,0,0,1,2.747.41,6.55,6.55,0,0,1,1.977.915,5.442,5.442,0,0,1,1.26,1.267,4.715,4.715,0,0,1,.7,1.414,5.149,5.149,0,0,1,.2,1.413,4.883,4.883,0,0,1-.813,2.725,5.791,5.791,0,0,1-2.212,1.978,6.454,6.454,0,0,1-3.04.732A6.482,6.482,0,0,1,7.4,23.315,5.847,5.847,0,0,1,5.218,21.5a4.958,4.958,0,0,1-.952-2.541,0.441,0.441,0,0,0-.146-0.286,0.418,0.418,0,0,0-.293-0.125A0.45,0.45,0,0,0,3.372,19v0.029a5.8,5.8,0,0,0,1.091,2.952,6.745,6.745,0,0,0,2.5,2.117,7.352,7.352,0,0,0,3.347.776,7.35,7.35,0,0,0,3.494-.85,6.612,6.612,0,0,0,2.534-2.307,5.782,5.782,0,0,0,.93-3.171,5.7,5.7,0,0,0-.557-2.5,6.382,6.382,0,0,0-1.582-2.065,5.8,5.8,0,0,0-1.333-.806h0Z" transform="translate(-3.375 -2.813)"/>
</svg>
