<svg xmlns="http://www.w3.org/2000/svg" xmlns:xlink="http://www.w3.org/1999/xlink" width="14.031" height="22.063" viewBox="0 0 14.031 22.063">
  <defs>
    <style>
      .cls-1 {
        fill: #fff;
        fill-rule: evenodd;
        filter: url(#filter);
      }
    </style>
    <filter id="filter" x="3.5" y="2.813" width="14.031" height="22.063" filterUnits="userSpaceOnUse">
      <feFlood result="flood" flood-color="#fff"/>
      <feComposite result="composite" operator="in" in2="SourceGraphic"/>
      <feBlend result="blend" in2="SourceGraphic"/>
    </filter>
  </defs>
  <path id="num6" class="cls-1" d="M8.316,11.882a6.261,6.261,0,0,0-2.007.952l4.307-9.4a0.444,0.444,0,0,0-.4-0.63H10.205a0.439,0.439,0,0,0-.234.073,0.394,0.394,0,0,0-.161.176L4.126,15.413a6.755,6.755,0,0,0-.439,1.362,5.833,5.833,0,0,0-.176,1.406,6.708,6.708,0,0,0,.542,2.607,6.609,6.609,0,0,0,1.509,2.139,7.063,7.063,0,0,0,2.227,1.421,7.163,7.163,0,0,0,2.739.527,7.318,7.318,0,0,0,2.212-.337,6.647,6.647,0,0,0,1.934-.967,7.313,7.313,0,0,0,1.509-1.436,6.144,6.144,0,0,0,1.011-1.831,6.418,6.418,0,0,0,.352-2.124,6.221,6.221,0,0,0-.557-2.593,6.782,6.782,0,0,0-1.494-2.139,6.574,6.574,0,0,0-2.241-1.421,7.755,7.755,0,0,0-4.937-.146h0ZM7.452,23.206A5.927,5.927,0,0,1,5.225,21.1a5.564,5.564,0,0,1,0-5.815,5.93,5.93,0,0,1,2.227-2.109,6.482,6.482,0,0,1,6.152,0,5.922,5.922,0,0,1,2.226,2.109,5.564,5.564,0,0,1,0,5.816,5.9,5.9,0,0,1-2.241,2.109A6.453,6.453,0,0,1,7.452,23.206Z" transform="translate(-3.5 -2.813)"/>
</svg>
