<svg xmlns="http://www.w3.org/2000/svg" xmlns:xlink="http://www.w3.org/1999/xlink" width="13.75" height="22.063" viewBox="0 0 13.75 22.063">
  <defs>
    <style>
      .cls-1 {
        fill: #fff;
        fill-rule: evenodd;
        filter: url(#filter);
      }
    </style>
    <filter id="filter" x="3.344" y="2.813" width="13.75" height="22.063" filterUnits="userSpaceOnUse">
      <feFlood result="flood" flood-color="#fff"/>
      <feComposite result="composite" operator="in" in2="SourceGraphic"/>
      <feBlend result="blend" in2="SourceGraphic"/>
    </filter>
  </defs>
  <path id="num9" class="cls-1" d="M7.547,3.32A7.1,7.1,0,0,0,5.349,4.7,6.527,6.527,0,0,0,3.885,6.8a6.264,6.264,0,0,0,0,5.1,6.526,6.526,0,0,0,1.465,2.095,6.859,6.859,0,0,0,2.2,1.392,7.052,7.052,0,0,0,2.666.527h0.029a6.984,6.984,0,0,0,2.021-.352,7.657,7.657,0,0,0,1.89-.835L9.48,24.231a0.42,0.42,0,0,0-.044.191,0.438,0.438,0,0,0,.439.454A0.44,0.44,0,0,0,10.11,24.8a0.508,0.508,0,0,0,.176-0.176l6.021-12.261a6.235,6.235,0,0,0,.557-1.465,6.128,6.128,0,0,0,.22-1.553A6.2,6.2,0,0,0,16.541,6.8a6.364,6.364,0,0,0-1.465-2.08,7.177,7.177,0,0,0-2.2-1.406A7.141,7.141,0,0,0,7.547,3.32ZM7.217,14.248A5.794,5.794,0,0,1,5.042,12.19a5.415,5.415,0,0,1,0-5.684A5.757,5.757,0,0,1,7.21,4.456a6.156,6.156,0,0,1,3-.762,6.021,6.021,0,0,1,2.988.762,5.89,5.89,0,0,1,2.183,2.051,5.415,5.415,0,0,1,0,5.684,5.757,5.757,0,0,1-2.168,2.051A6.312,6.312,0,0,1,7.217,14.248Z" transform="translate(-3.344 -2.813)"/>
</svg>
