<?xml version="1.0" encoding="utf-8"?>
<!-- Generator: Adobe Illustrator 24.1.0, SVG Export Plug-In . SVG Version: 6.00 Build 0)  -->
<svg version="1.1" id="Layer_1" xmlns="http://www.w3.org/2000/svg" xmlns:xlink="http://www.w3.org/1999/xlink" x="0px" y="0px"
	 viewBox="0 0 512 512" 
	 style="enable-background:new 0 0 512 512;" 
	 xml:space="preserve"
	 >
<style type="text/css">
	.st0{fill:#DEECF1;}
	.st1{fill:#C6E2E7;}
	.st2{fill:#384949;}
	.st3{fill:#293939;}
</style>
<path id="circle2" class="st0" d="M256,512C115.4,512,0,396.6,0,256S115.4,0,256,0s256,115.4,256,256S396.6,512,256,512z"/>
<path id="circle1" class="st1" d="M512,256C512,115.4,396.6,0,256,0v512C396.6,512,512,396.6,512,256z"/>
<path id="base1" class="st2" d="M391.6,234.3H120.4V416h271.2V234.3z"/>
<path id="base2" class="st3" d="M256,234.3h135.6V416H256V234.3z"/>
<path class="st2" d="M256,67L81,243h350L256,67z"/>
<path class="st3" d="M431,243L256,67v176H431z"/>
</svg>
